<?xml version="1.0" encoding="UTF-8"?>
<svg id="Calque_1" data-name="Calque 1" xmlns="http://www.w3.org/2000/svg" viewBox="0 0 1767.68 436.32">
  <path d="M69.08,6.06h90.29l69.08,424.2h-66.66l-12.12-84.23v1.21h-75.75l-12.12,83.02H0L69.08,6.06ZM141.8,289.67l-29.69-209.68h-1.21l-29.09,209.68h59.99Z" style="fill: #fff; stroke-width: 0px;"/>
  <path d="M260.57,6.06h98.78c34.33,0,59.39,7.98,75.14,23.94,15.76,15.96,23.63,40.51,23.63,73.63v26.06c0,44.04-14.54,71.92-43.63,83.63v1.21c16.15,4.85,27.57,14.75,34.24,29.69,6.67,14.95,10,34.95,10,59.99v74.54c0,12.12.4,21.92,1.21,29.39.8,7.48,2.82,14.85,6.06,22.12h-67.87c-2.42-6.87-4.04-13.33-4.85-19.39-.81-6.06-1.21-16.97-1.21-32.72v-77.57c0-19.39-3.13-32.92-9.39-40.6-6.27-7.67-17.07-11.51-32.42-11.51h-23.03v181.8h-66.66V6.06ZM351.47,187.86c13.33,0,23.33-3.43,30-10.3,6.67-6.86,10-18.38,10-34.54v-32.72c0-15.35-2.73-26.46-8.18-33.33-5.45-6.87-14.04-10.3-25.75-10.3h-30.3v121.2h24.24Z" style="fill: #fff; stroke-width: 0px;"/>
  <path d="M555.69,66.66h-69.69V6.06h206.04v60.6h-69.69v363.6h-66.66V66.66Z" style="fill: #fff; stroke-width: 0px;"/>
  <path d="M724.16,6.06h66.66v172.71h71.51V6.06h66.66v424.2h-66.66v-190.89h-71.51v190.89h-66.66V6.06Z" style="fill: #fff; stroke-width: 0px;"/>
  <path d="M1001.71,408.75c-16.97-18.38-25.45-44.74-25.45-79.08V6.06h66.66v328.45c0,14.54,2.93,25.05,8.79,31.51,5.85,6.47,14.24,9.7,25.15,9.7s19.29-3.23,25.15-9.7c5.85-6.46,8.79-16.97,8.79-31.51V6.06h64.24v323.6c0,34.34-8.48,60.7-25.45,79.08-16.97,18.39-41.62,27.57-73.93,27.57s-56.96-9.19-73.93-27.57Z" style="fill: #fff; stroke-width: 0px;"/>
  <path d="M1222.29,6.06h98.78c34.33,0,59.39,7.98,75.14,23.94,15.76,15.96,23.63,40.51,23.63,73.63v26.06c0,44.04-14.54,71.92-43.63,83.63v1.21c16.15,4.85,27.57,14.75,34.24,29.69,6.67,14.95,10,34.95,10,59.99v74.54c0,12.12.4,21.92,1.21,29.39.8,7.48,2.82,14.85,6.06,22.12h-67.87c-2.42-6.87-4.04-13.33-4.85-19.39-.81-6.06-1.21-16.97-1.21-32.72v-77.57c0-19.39-3.13-32.92-9.39-40.6-6.27-7.67-17.07-11.51-32.42-11.51h-23.03v181.8h-66.66V6.06ZM1313.19,187.86c13.33,0,23.33-3.43,30-10.3,6.67-6.86,10-18.38,10-34.54v-32.72c0-15.35-2.73-26.46-8.18-33.33-5.45-6.87-14.04-10.3-25.75-10.3h-30.3v121.2h24.24Z" style="fill: #fff; stroke-width: 0px;"/>
  <path d="M1488.32,70.3h-21.82V6.06h64.24v57.57l-36.97,79.39h-30.91l25.45-72.72Z" style="fill: #fff; stroke-width: 0px;"/>
  <path d="M1593.76,408.75c-16.57-18.38-24.85-44.74-24.85-79.08v-24.24h63.02v29.09c0,27.48,11.51,41.21,34.54,41.21,11.31,0,19.89-3.33,25.75-10,5.85-6.67,8.79-17.47,8.79-32.42,0-17.77-4.04-33.42-12.12-46.96-8.09-13.53-23.03-29.79-44.84-48.78-27.48-24.24-46.66-46.15-57.57-65.75-10.91-19.59-16.36-41.71-16.36-66.36,0-33.53,8.48-59.48,25.45-77.87,16.97-18.38,41.61-27.57,73.93-27.57s56.06,9.19,72.42,27.57c16.36,18.39,24.54,44.75,24.54,79.08v17.57h-63.02v-21.82c0-14.54-2.83-25.15-8.48-31.81-5.66-6.67-13.94-10-24.85-10-22.22,0-33.33,13.54-33.33,40.6,0,15.36,4.14,29.69,12.42,43.03,8.28,13.33,23.33,29.5,45.15,48.48,27.88,24.24,47.06,46.26,57.57,66.05,10.5,19.8,15.76,43.03,15.76,69.69,0,34.75-8.59,61.42-25.75,79.99-17.18,18.59-42.12,27.88-74.84,27.88s-56.76-9.19-73.33-27.57Z" style="fill: #fff; stroke-width: 0px;"/>
</svg>